HIERARCHY
ROOT Hips
{
	OFFSET 0.00000 0.00000 0.00000
	CHANNELS 6 Xposition Yposition Zposition Zrotation Yrotation Xrotation 
	JOINT LHipJoint
	{
		OFFSET 0 0 0
		CHANNELS 3 Zrotation Yrotation Xrotation
		JOINT LeftUpLeg
		{
			OFFSET 1.34019 -1.87553 0.90315
			CHANNELS 3 Zrotation Yrotation Xrotation
			JOINT LeftLeg
			{
				OFFSET 2.55316 -7.01474 0.00000
				CHANNELS 3 Zrotation Yrotation Xrotation
				JOINT LeftFoot
				{
					OFFSET 2.64657 -7.27139 0.00000
					CHANNELS 3 Zrotation Yrotation Xrotation
					JOINT LeftToeBase
					{
						OFFSET 0.24207 -0.66507 2.14489
						CHANNELS 3 Zrotation Yrotation Xrotation
						End Site
						{
							OFFSET 0.00000 -0.00000 1.12451
						}
					}
				}
			}
		}
	}
	JOINT RHipJoint
	{
		OFFSET 0 0 0
		CHANNELS 3 Zrotation Yrotation Xrotation
		JOINT RightUpLeg
		{
			OFFSET -1.28320 -1.87553 0.90315
			CHANNELS 3 Zrotation Yrotation Xrotation
			JOINT RightLeg
			{
				OFFSET -2.60484 -7.15674 0.00000
				CHANNELS 3 Zrotation Yrotation Xrotation
				JOINT RightFoot
				{
					OFFSET -2.60296 -7.15159 0.00000
					CHANNELS 3 Zrotation Yrotation Xrotation
					JOINT RightToeBase
					{
						OFFSET -0.31082 -0.85398 2.28998
						CHANNELS 3 Zrotation Yrotation Xrotation
						End Site
						{
							OFFSET -0.00000 -0.00000 1.21611
						}
					}
				}
			}
		}
	}
	JOINT LowerBack
	{
		OFFSET 0 0 0
		CHANNELS 3 Zrotation Yrotation Xrotation
		JOINT Spine
		{
			OFFSET -0.00160 2.05581 -0.15156
			CHANNELS 3 Zrotation Yrotation Xrotation
			JOINT Spine1
			{
				OFFSET 0.04594 2.06326 -0.01617
				CHANNELS 3 Zrotation Yrotation Xrotation
				JOINT Neck
				{
					OFFSET 0 0 0
					CHANNELS 3 Zrotation Yrotation Xrotation
					JOINT Neck1
					{
						OFFSET 0.03753 1.73883 0.26751
						CHANNELS 3 Zrotation Yrotation Xrotation
						JOINT Head
						{
							OFFSET -0.09795 1.76129 -0.31794
							CHANNELS 3 Zrotation Yrotation Xrotation
							End Site
							{
								OFFSET -0.03611 1.79987 -0.13846
							}
						}
					}
				}
				JOINT LeftShoulder
				{
					OFFSET 0 0 0
					CHANNELS 3 Zrotation Yrotation Xrotation
					JOINT LeftArm
					{
						OFFSET 3.30667 1.29205 -0.22445
						CHANNELS 3 Zrotation Yrotation Xrotation
						JOINT LeftForeArm
						{
							OFFSET 4.92785 -0.00000 -0.00000
							CHANNELS 3 Zrotation Yrotation Xrotation
							JOINT LeftHand
							{
								OFFSET 3.44052 -0.00000 0.00000
								CHANNELS 3 Zrotation Yrotation Xrotation
								JOINT LeftFingerBase
								{
									OFFSET 0 0 0
									CHANNELS 3 Zrotation Yrotation Xrotation
									JOINT LeftHandIndex1
									{
										OFFSET 0.65433 -0.00000 0.00000
										CHANNELS 3 Zrotation Yrotation Xrotation
										End Site
										{
											OFFSET 0.52753 -0.00000 0.00000
										}
									}
								}
								JOINT LThumb
								{
									OFFSET 0 0 0
									CHANNELS 3 Zrotation Yrotation Xrotation
									End Site
									{
										OFFSET 0.53559 -0.00000 0.53559
									}
								}
							}
						}
					}
				}
				JOINT RightShoulder
				{
					OFFSET 0 0 0
					CHANNELS 3 Zrotation Yrotation Xrotation
					JOINT RightArm
					{
						OFFSET -3.20032 1.49783 -0.27688
						CHANNELS 3 Zrotation Yrotation Xrotation
						JOINT RightForeArm
						{
							OFFSET -5.09181 -0.00000 -0.00000
							CHANNELS 3 Zrotation Yrotation Xrotation
							JOINT RightHand
							{
								OFFSET -3.49865 -0.00000 -0.00000
								CHANNELS 3 Zrotation Yrotation Xrotation
								JOINT RightFingerBase
								{
									OFFSET 0 0 0
									CHANNELS 3 Zrotation Yrotation Xrotation
									JOINT RightHandIndex1
									{
										OFFSET -0.66641 -0.00000 0.00000
										CHANNELS 3 Zrotation Yrotation Xrotation
										End Site
										{
											OFFSET -0.53728 -0.00000 0.00000
										}
									}
								}
								JOINT RThumb
								{
									OFFSET 0 0 0
									CHANNELS 3 Zrotation Yrotation Xrotation
									End Site
									{
										OFFSET -0.54548 -0.00000 0.54548
									}
								}
							}
						}
					}
				}
			}
		}
	}
}
MOTION
Frames: 6
Frame Time: .0083333
0.8221 17.8017 -31.6154 0 0 0 0 0 0 -21 0 0 0 0 0 0 0 0 0 0 0 0 0 0 21 0 0 0 0 0 0 0 0 0 0 0 0 0 0 0 0 0 0 0 0 0 0 -16 0 0 21 0 0 11 0 0 0 -8 0 0 0 0 0 0 0 0 0 0 0 0 0 0 0 0 0 0 0 0 8 0 0 0 0 0 0 0 0 0 0 0 0 0 0 0 0 0
0.8221 17.8017 -31.6154 -1.5116 36.7293 1.1043 0.0000 0.0000 0.0000 -15.4612 -14.9704 -11.0525 2.9003 10.5318 30.7168 0.6044 -3.0793 -13.9597 0.2512 -3.2250 -8.9058 0.0000 0.0000 0.0000 19.5972 -13.4041 -4.8659 -1.9801 -8.8245 25.2478 1.9204 -31.2850 -34.1534 -0.0227 -0.9717 2.6710 -1.7075 8.3324 -2.8516 4.9246 11.2067 -0.8339 6.1679 5.6870 -0.6033 13.5508 18.6260 1.5952 -15.0391 26.5422 6.2924 -4.6739 13.1656 5.4433 0.0000 -0.0000 0.0000 -97.8283 5.2130 -11.6257 7.4123 -12.5957 -0.8192 -0.0000 -0.0000 8.9139 33.0337 -14.0397 -8.9643 -7.1250 0.0000 -0.0000 3.7620 13.3972 -2.7941 0.0000 -0.0000 0.0000 76.9203 7.8868 32.9500 -23.3136 34.4299 -7.3148 0.0000 -0.0000 -15.9963 -20.3310 1.5699 -0.5816 7.1250 -0.0000 -0.0000 4.8375 -28.2935 1.9731
0.8167 17.8015 -31.6113 -1.4854 36.6159 1.1157 0.0000 0.0000 0.0000 -15.4621 -14.9049 -11.0284 2.8948 10.5228 30.6867 0.6051 -3.0483 -13.9710 0.2535 -3.2395 -8.9463 0.0000 0.0000 0.0000 19.5777 -13.3733 -4.8555 -1.9807 -8.8258 25.2518 1.9181 -31.2394 -34.0775 -0.0217 -0.9504 2.6123 -0.5595 8.2695 -2.0991 3.9007 11.0925 -1.2587 4.3693 5.6071 -1.0192 14.2337 18.7746 1.9570 -14.3362 26.5687 5.6875 -4.6111 13.2215 5.1879 -0.0000 -0.0000 0.0000 -96.3996 5.7534 -9.7475 7.7593 -13.1619 -0.8965 -0.0000 -0.0000 5.9380 33.4857 -14.0256 -9.1084 -7.1250 0.0000 -0.0000 4.0658 13.3368 -3.0261 -0.0000 -0.0000 0.0000 78.8223 7.5789 33.3508 -23.3626 34.4830 -7.3426 0.0000 -0.0000 -15.6410 -20.3626 1.9268 -0.7150 7.1250 -0.0000 -0.0000 4.7992 -27.9140 2.0005
0.8111 17.8002 -31.6075 -1.5013 36.4883 1.1132 0.0000 0.0000 0.0000 -15.4212 -14.8697 -11.0440 2.8964 10.5254 30.6956 0.6046 -2.9344 -13.9811 0.2559 -3.2550 -8.9895 0.0000 0.0000 0.0000 19.5966 -13.3390 -4.8427 -1.9750 -8.8138 25.2147 1.9178 -31.2011 -34.0041 -0.0207 -0.9295 2.5548 0.5974 8.1944 -1.3765 2.9115 10.9801 -1.6695 2.6289 5.5217 -1.4200 14.7916 18.9233 2.1747 -13.5409 26.6153 5.2731 -4.4869 13.2739 4.9881 0.0000 0.0000 0.0000 -94.9952 6.2805 -8.0572 8.1293 -13.7622 -0.9827 -0.0000 -0.0000 3.3607 33.2717 -14.3969 -9.2661 -7.1250 0.0000 -0.0000 3.8748 12.9409 -2.9154 0.0000 0.0000 0.0000 80.5572 7.2375 33.9937 -23.4312 34.5570 -7.3814 0.0000 -0.0000 -15.1618 -20.4151 2.0326 -0.7563 7.1250 -0.0000 -0.0000 4.7548 -27.8010 1.9947
0.8060 17.8007 -31.6053 -1.5814 36.4083 1.0462 0.0000 0.0000 0.0000 -15.3354 -14.8694 -10.9975 2.8975 10.5273 30.7017 0.6070 -2.8728 -14.0173 0.2532 -3.2375 -8.9407 0.0000 0.0000 0.0000 19.6726 -13.3220 -4.8035 -1.9701 -8.8035 25.1824 1.8908 -31.1276 -34.0256 -0.0209 -0.9343 2.5681 1.2327 8.6898 -1.0728 2.0875 11.6392 -2.0638 1.3947 5.8289 -1.7268 16.2297 18.3675 2.1245 -13.5369 25.8341 5.2881 -4.7373 12.9031 5.0740 0.0000 0.0000 0.0000 -93.5202 6.5469 -5.8820 8.1912 -13.8623 -0.9974 -0.0000 -0.0000 2.7314 33.4317 -14.5720 -9.4306 -7.1250 0.0000 -0.0000 3.9580 12.7090 -2.9976 0.0000 0.0000 0.0000 81.9794 6.3471 32.5572 -23.4923 34.6228 -7.4161 0.0000 -0.0000 -14.8792 -20.1564 2.0926 -0.7679 7.1250 -0.0000 -0.0000 4.9517 -27.7400 2.0850
0.8004 17.8005 -31.6029 -1.6187 36.3157 1.0120 0.0000 0.0000 0.0000 -15.2887 -14.8903 -10.9573 2.8980 10.5280 30.7041 0.6078 -2.7599 -14.0437 0.2532 -3.2378 -8.9414 0.0000 0.0000 0.0000 19.7100 -13.3035 -4.7755 -1.9648 -8.7924 25.1481 1.8850 -31.0871 -33.9823 -0.0206 -0.9264 2.5464 1.8924 8.8998 -0.6802 1.3730 11.9242 -2.3869 0.2574 5.9462 -1.9980 17.0348 18.1419 2.2081 -13.2763 25.4658 5.0582 -4.8213 12.7388 5.0002 0.0000 0.0000 0.0000 -92.3830 6.8536 -4.0328 8.3746 -14.1582 -1.0418 -0.0000 -0.0000 1.6548 33.7702 -14.6424 -9.5943 -7.1250 0.0000 -0.0000 4.1732 12.5665 -3.1739 0.0000 0.0000 0.0000 83.2334 5.7589 32.0438 -23.5312 34.6646 -7.4382 0.0000 -0.0000 -14.4867 -20.0440 2.2109 -0.8064 7.1250 -0.0000 -0.0000 5.0337 -27.6158 2.1345
